<?xml version="1.0" encoding="utf-8"?>
<!-- Generator: Adobe Illustrator 23.0.3, SVG Export Plug-In . SVG Version: 6.00 Build 0)  -->
<svg version="1.1" id="Layer_1" xmlns="http://www.w3.org/2000/svg" xmlns:xlink="http://www.w3.org/1999/xlink" x="0px" y="0px"
	 viewBox="0 0 200 200" style="enable-background:new 0 0 200 200;" xml:space="preserve">
<style type="text/css">
	.st0{fill:#F6C114;}
	.st1{fill:#232323;}
	.st2{fill:#FFFFFF;}
</style>
<g>
	<g>
		<g>
			<g>
				<g>
					<path class="st0" d="M85.8,102.8h47c1.3,0,2.2,1.1,2.2,2.3c-1.1,15.9-14.3,15.9-25.7,15.9c-11.3,0-24.4-0.9-25.7-15.9
						C83.6,103.9,84.6,102.8,85.8,102.8z"/>
				</g>
				<g>
					<path class="st1" d="M109.3,122.3c-9.6,0-25.6,0-27-17.1c-0.1-1,0.3-1.9,0.9-2.6c0.7-0.7,1.6-1.1,2.6-1.1h47
						c1,0,1.9,0.4,2.6,1.1c0.7,0.7,1,1.7,0.9,2.6C135.1,122.3,120.8,122.3,109.3,122.3z M85.8,104.1c-0.3,0-0.5,0.2-0.6,0.3
						c-0.1,0.1-0.2,0.3-0.2,0.6c1.1,13.5,12.6,14.6,24.3,14.6c11.4,0,23.3,0,24.3-14.6c0-0.3-0.1-0.5-0.2-0.6
						c-0.1-0.1-0.3-0.3-0.6-0.3H85.8z"/>
				</g>
			</g>
			<g>
				<g>
					<path class="st0" d="M131.1,97.2H87.5c-3,0-4.9-3.3-3.3-5.9c5.2-8.3,14.5-13.8,25.1-13.8s19.8,5.5,25.1,13.8
						C136,93.9,134.1,97.2,131.1,97.2z"/>
				</g>
				<g>
					<path class="st1" d="M131.1,98.6H87.5c-1.9,0-3.6-1-4.5-2.7c-0.9-1.7-0.9-3.7,0.2-5.3c5.7-9.1,15.5-14.5,26.2-14.5
						c10.7,0,20.5,5.4,26.2,14.5c1,1.6,1.1,3.6,0.2,5.3C134.7,97.6,133,98.6,131.1,98.6z M109.3,78.8c-9.8,0-18.7,4.9-23.9,13.2
						c-0.5,0.8-0.5,1.7-0.1,2.5c0.4,0.8,1.3,1.3,2.2,1.3h43.6c0.9,0,1.8-0.5,2.2-1.3c0.4-0.8,0.4-1.8-0.1-2.5
						C128,83.8,119.1,78.8,109.3,78.8z"/>
				</g>
			</g>
			<g>
				<path class="st2" d="M91.3,89.2c-0.3,0-0.5-0.1-0.7-0.3c-0.4-0.4-0.4-1,0-1.4c4.2-4.4,9.6-7.2,15.5-8.2c0.5-0.1,1.1,0.3,1.2,0.8
					c0.1,0.5-0.3,1.1-0.8,1.2c-5.5,0.9-10.5,3.6-14.4,7.6C91.8,89.1,91.5,89.2,91.3,89.2z"/>
			</g>
			<g>
				<g>
					<path class="st0" d="M134.4,102H84.2c-1.5,0-2.7-1.4-2.3-2.9l0,0c0.2-1.1,1.2-1.9,2.3-1.9h50.1c1.6,0,2.7,1.5,2.3,3l0,0
						C136.4,101.2,135.5,102,134.4,102z"/>
				</g>
				<g>
					<path class="st1" d="M134.4,103.3H84.2c-1.1,0-2.2-0.5-2.9-1.4c-0.7-0.9-1-2-0.7-3.1c0.4-1.7,1.9-2.9,3.6-2.9h50.1
						c1.2,0,2.2,0.5,2.9,1.4c0.7,0.9,0.9,2.1,0.7,3.2C137.6,102.2,136.1,103.3,134.4,103.3z M84.2,98.5c-0.5,0-0.9,0.3-1,0.8
						c-0.1,0.4,0.1,0.7,0.2,0.9c0.1,0.1,0.4,0.4,0.8,0.4h50.1c0.5,0,0.9-0.3,1-0.8c0.1-0.3,0-0.6-0.2-0.9c-0.2-0.3-0.5-0.4-0.8-0.4
						H84.2z"/>
				</g>
			</g>
			<g>
				<g>
					<path class="st0" d="M81.9,102.8c0,0.4,0.3,0.6,0.6,0.7c4,0.4,4.2,4.3,8.5,4.3c4.6,0,4.6-4.4,9.1-4.4c4.6,0,4.6,4.4,9.2,4.4
						c4.6,0,4.6-4.4,9.2-4.4c4.6,0,4.6,4.4,9.2,4.4c4.4,0,4.6-4,8.5-4.3c0.3,0,0.6-0.3,0.6-0.7l0,0c0-0.4-0.3-0.7-0.7-0.7H82.5
						C82.2,102.2,81.9,102.5,81.9,102.8L81.9,102.8z"/>
				</g>
				<g>
					<path class="st1" d="M127.6,109.2c-2.8,0-4.3-1.4-5.5-2.6c-1.1-1-1.9-1.8-3.7-1.8c-1.8,0-2.6,0.8-3.6,1.8
						c-1.2,1.1-2.7,2.6-5.5,2.6c-2.8,0-4.3-1.4-5.5-2.6c-1.1-1-1.9-1.8-3.6-1.8c-1.7,0-2.6,0.8-3.6,1.8c-1.2,1.1-2.7,2.6-5.5,2.6
						c-2.8,0-4.3-1.4-5.5-2.6c-1-0.9-1.7-1.7-3.2-1.8c-1-0.1-1.8-1-1.8-2c0-1.1,0.9-2,2-2h53.6c1.1,0,2,0.9,2,2c0,1-0.8,1.9-1.8,2
						c-1.4,0.1-2.2,0.9-3.2,1.8C131.9,107.8,130.4,109.2,127.6,109.2z M122.6,103.5c0.5,0.4,1,0.8,1.4,1.2c1.1,1,1.9,1.8,3.7,1.8
						c1.8,0,2.6-0.8,3.7-1.8c0.4-0.4,0.8-0.8,1.4-1.2H122.6z M104.3,103.5c0.5,0.4,1,0.8,1.4,1.2c1.1,1,1.9,1.8,3.6,1.8
						c1.8,0,2.6-0.8,3.7-1.8c0.4-0.4,0.9-0.8,1.4-1.2H104.3z M86,103.5c0.5,0.4,1,0.8,1.4,1.2c1.1,1,1.9,1.8,3.6,1.8
						c1.8,0,2.6-0.8,3.6-1.8c0.4-0.4,0.9-0.8,1.4-1.2H86z M136.1,103.5L136.1,103.5L136.1,103.5z M136,102.2
						C136,102.2,136,102.2,136,102.2C136,102.2,136,102.2,136,102.2z M82.6,102.2C82.6,102.2,82.6,102.2,82.6,102.2
						C82.6,102.2,82.6,102.2,82.6,102.2z"/>
				</g>
			</g>
			<g>
				<path class="st1" d="M100.9,90.2c-0.3,0.5-1.1,0.7-1.6,0.3c-0.5-0.3-0.7-1.1-0.3-1.6c0.3-0.5,2-2.1,2.5-1.8
					C102,87.5,101.2,89.6,100.9,90.2z"/>
			</g>
			<g>
				<path class="st1" d="M93.5,91.6c-0.4,0.5-1.1,0.6-1.6,0.2c-0.5-0.4-0.6-1.1-0.2-1.6c0.4-0.5,2.2-1.9,2.7-1.5
					C94.9,89,93.9,91.1,93.5,91.6z"/>
			</g>
			<g>
				<path class="st1" d="M109.7,92.2c0,0.6-0.6,1.1-1.2,1.1c-0.6,0-1.1-0.6-1.1-1.2c0-0.6,0.7-2.9,1.3-2.8
					C109.4,89.3,109.7,91.5,109.7,92.2z"/>
			</g>
			<g>
				<path class="st1" d="M108.5,84.8c-0.3,0.6-0.9,0.8-1.5,0.6c-0.6-0.3-0.8-0.9-0.6-1.5c0.3-0.6,1.6-2.4,2.2-2.2
					C109.2,81.9,108.8,84.2,108.5,84.8z"/>
			</g>
			<g>
				<path class="st1" d="M118.7,83.4c0.4,0.5,0.3,1.2-0.2,1.6c-0.5,0.4-1.2,0.3-1.6-0.2c-0.4-0.5-1.4-2.6-0.9-3
					C116.5,81.5,118.3,82.9,118.7,83.4z"/>
			</g>
			<g>
				<path class="st1" d="M118.7,92.9c0.2,0.6-0.2,1.2-0.8,1.4c-0.6,0.2-1.2-0.2-1.4-0.8c-0.2-0.6-0.3-2.9,0.3-3.1
					C117.4,90.3,118.5,92.3,118.7,92.9z"/>
			</g>
			<g>
				<path class="st1" d="M126.3,88.8c0.4,0.5,0.3,1.2-0.2,1.6c-0.5,0.4-1.2,0.3-1.6-0.2c-0.4-0.5-1.3-2.6-0.8-3S126,88.3,126.3,88.8
					z"/>
			</g>
			<g>
				<path class="st2" d="M89.8,91.2c0,0.5-0.4,0.9-0.9,0.9c-0.5,0-0.9-0.4-0.9-0.9s0.4-0.9,0.9-0.9C89.4,90.3,89.8,90.7,89.8,91.2z"
					/>
			</g>
			<g>
				<path class="st2" d="M103.9,100.1H84.6c-0.4,0-0.7-0.3-0.7-0.7s0.3-0.7,0.7-0.7h19.3c0.4,0,0.7,0.3,0.7,0.7
					S104.3,100.1,103.9,100.1z"/>
			</g>
			<g>
				<path class="st2" d="M110.9,100.1h-4.4c-0.4,0-0.7-0.3-0.7-0.7s0.3-0.7,0.7-0.7h4.4c0.4,0,0.7,0.3,0.7,0.7
					S111.2,100.1,110.9,100.1z"/>
			</g>
		</g>
		<g>
			<g>
				<g>
					<path class="st2" d="M68.4,78.9c0,0-3.6-23.1-8.7-31.7c-0.1-0.1-0.1-0.2-0.2-0.3c-3.8-6.1-13.2-1.9-11.2,5L64.3,109L68.4,78.9z
						"/>
				</g>
				<g>
					<path class="st1" d="M65,119.6l-18.7-67c-1.1-4.1,0.8-8.2,4.7-9.9c3.9-1.7,8.2-0.4,10.4,3.2l0.2,0.3c5.2,8.9,8.8,31.5,8.9,32.5
						l0,0.3l0,0.3L65,119.6z M54.4,46.2c-0.6,0-1.2,0.1-1.8,0.4c-1.5,0.7-3,2.3-2.3,4.8l13.2,47.2L66.2,79c-0.4-2.7-3.8-23-8.4-30.6
						l-0.1-0.2C56.8,46.7,55.6,46.2,54.4,46.2z"/>
				</g>
			</g>
			<g>
				<g>
					<path class="st2" d="M70,75.5c0,0,0.2-23.4-3.4-32.7c0-0.1-0.1-0.2-0.1-0.3c-2.7-6.6-12.7-4-11.9,3.1l6.5,58.9L70,75.5z"/>
				</g>
				<g>
					<path class="st1" d="M60.1,115l-7.6-69.2c-0.5-4.2,2.1-8,6.3-9c4.1-1.1,8.1,0.9,9.7,4.9l0.1,0.3c3.7,9.6,3.6,32.5,3.6,33.5
						l0,0.3L72,76.1L60.1,115z M60.8,40.8c-0.4,0-0.8,0.1-1.1,0.1c-1.6,0.4-3.4,1.8-3.1,4.4L62,94l5.8-18.9c0-2.8-0.1-23.3-3.3-31.6
						l-0.1-0.2C63.7,41.4,62.2,40.8,60.8,40.8z M70,75.5L70,75.5L70,75.5z"/>
				</g>
			</g>
			<g>
				<g>
					<path class="st2" d="M74.1,71.5c0,0,5.4-22.8,3.9-32.6c0-0.1,0-0.2,0-0.3c-1.2-7.1-11.5-6.7-12.3,0.4L59,97.8L74.1,71.5z"/>
				</g>
			</g>
			<g>
				<g>
					<path class="st1" d="M59,100c-0.1,0-0.2,0-0.2,0c-1.2-0.1-2-1.2-1.9-2.4l6.7-58.9c0.5-4.2,3.8-7.3,8.1-7.4c0.1,0,0.2,0,0.3,0
						c4.1,0,7.5,2.8,8.2,6.9l0.1,0.3C81.7,48.7,76.5,71,76.2,72c-0.3,1.2-1.4,1.9-2.6,1.6c-1.1-0.3-1.9-1.4-1.6-2.6
						c0.1-0.2,5.2-22.5,3.8-31.8l0-0.2c-0.4-2.5-2.5-3.4-4.1-3.3c-1.6,0-3.7,1-4,3.6l-6.7,58.9C61,99.2,60.1,100,59,100z"/>
				</g>
			</g>
			<g>
				<g>
					<path class="st2" d="M71.2,73.8c4.8-4.2,10.7-7.2,17.4-8.3c2-0.4,4.4-0.6,4.4-0.6c8.9-1,12.2,3.5,12.2,3.5
						c0.3,0.5,1.6,2.2,1.4,4.6c-0.1,0.5-0.3,2.4-1.8,3.6c-1.5,1.2-3.4,1.2-4.4,1.2c-5.9-0.1-11.1,0.6-12.7,0.9
						c-5,0.9-8.4,3.9-9.5,4.8c-5.2,4.6-7.6,11.9-7.3,18.5c0.7,13.9,12.9,24.2,26.6,22.7c2.9-0.3,5.6-1.1,8-2.3c3-1.5,6.7-0.1,8,3
						c1.2,2.9,0,6.2-2.8,7.6c-3,1.5-6.2,2.6-9.6,3.2c-21.4,3.7-45.3-7.6-46.3-29.2c-0.2-5.2,1.7-15.8,6.7-19.4L71.2,73.8z"/>
				</g>
			</g>
			<g>
				<g>
					<path class="st1" d="M92.9,139c-10.6,0-21-3.3-28.5-9.3C57.1,123.8,53,116,52.6,107c-0.2-4.8,1.4-16.8,7.6-21.2
						c1-0.7,2.3-0.5,3,0.5c0.7,1,0.5,2.3-0.5,3c-4,2.8-6,12.1-5.8,17.5c0.4,7.7,3.9,14.4,10.2,19.5c8.6,6.9,21.5,9.8,33.6,7.7
						c3.1-0.5,6.2-1.5,9-3c1.8-0.9,2.6-3,1.8-4.9c-0.4-1-1.2-1.7-2.2-2.1c-1-0.4-2-0.3-2.9,0.1c-2.7,1.4-5.7,2.2-8.7,2.5
						c-7.1,0.8-14.4-1.4-19.8-6.1c-5.5-4.7-8.8-11.4-9.1-18.7c-0.4-7.8,2.7-15.6,8-20.2c1.2-1.1,5-4.4,10.6-5.3
						c2-0.4,7.3-1,13.1-0.9c0.9,0,2.1,0,3-0.7c0.8-0.7,1-1.8,1-2.2c0.1-1.3-0.4-2.4-1-3.1c-0.1-0.1-2.8-3.4-10.3-2.6
						c0,0-2.3,0.2-4.3,0.6c-6,1.1-11.7,3.8-16.3,7.8c-0.9,0.8-2.2,0.7-3-0.2c-0.8-0.9-0.7-2.2,0.2-3c5.2-4.6,11.6-7.6,18.4-8.8
						c2.1-0.4,4.4-0.6,4.5-0.6c10-1.1,14,4.1,14.1,4.3c1.4,1.8,2,4,1.8,6.1c-0.1,0.9-0.5,3.3-2.5,5c-2.1,1.7-4.5,1.7-5.7,1.7
						c-5.7-0.1-10.8,0.6-12.3,0.9c-4.4,0.8-7.5,3.5-8.5,4.4c-4.4,3.8-6.9,10.3-6.6,16.8c0.3,6.1,3,11.7,7.7,15.6
						c4.6,4,10.5,5.8,16.6,5.1c2.6-0.3,5-1,7.3-2.1c2-1,4.2-1.1,6.3-0.3c2.1,0.8,3.8,2.4,4.6,4.4c1.7,3.9,0,8.5-3.8,10.4
						c-3.2,1.6-6.7,2.7-10.2,3.4C98.6,138.8,95.7,139,92.9,139z"/>
				</g>
			</g>
			<g>
				<g>
					<path class="st2" d="M85.4,134.8c0.1,2.5,1.4,12.9,1.4,12.9l-20.7,2.6l-11.1-41c0,0,9.1,2.8,12,6
						C69.8,118.5,85.4,134.8,85.4,134.8z"/>
				</g>
			</g>
			<g>
				<g>
					<path class="st1" d="M64.5,152.7l-11.6-42.8c-0.3-1.1,0.4-2.3,1.5-2.6c1.1-0.3,2.3,0.4,2.6,1.5L67.6,148l16.8-2.1
						c-0.4-3.2-1.1-9.1-1.2-11c0-1.2,0.9-2.2,2-2.2c1.2,0,2.2,0.9,2.2,2c0.1,1.9,1,9.2,1.4,12.7l0.3,2.1L64.5,152.7z"/>
				</g>
			</g>
			<g>
				<g>
					
						<rect x="60" y="149.1" transform="matrix(-0.994 0.1092 -0.1092 -0.994 172.9896 303.533)" class="st1" width="36.3" height="14.9"/>
				</g>
				<g>
					<path class="st1" d="M59.1,168.2L57,149.2l40.3-4.4l2.1,19.1L59.1,168.2z M61.7,153l1.2,10.6l31.8-3.5l-1.2-10.6L61.7,153z"/>
				</g>
			</g>
			<g>
				<g>
					<path class="st2" d="M66.5,157.8c0.1,1.1,1.2,2,2.3,1.8c1.1-0.1,2-1.2,1.8-2.3c-0.1-1.1-1.2-2-2.3-1.8
						C67.2,155.6,66.4,156.6,66.5,157.8z"/>
				</g>
				<g>
					<path class="st2" d="M68.6,161.8c-2.1,0-4-1.6-4.2-3.8v0c-0.3-2.3,1.4-4.4,3.7-4.7c1.1-0.1,2.2,0.2,3.1,0.9
						c0.9,0.7,1.4,1.7,1.6,2.8c0.1,1.1-0.2,2.2-0.9,3.1c-0.7,0.9-1.7,1.4-2.8,1.6C68.9,161.8,68.7,161.8,68.6,161.8z M68.6,157.5
						C68.6,157.5,68.6,157.5,68.6,157.5l-2.1,0.3L68.6,157.5C68.6,157.5,68.6,157.5,68.6,157.5z"/>
				</g>
			</g>
		</g>
	</g>
	<path class="st1" d="M125.2,71.7L125.2,71.7c-0.8,0-1.5-0.7-1.5-1.5V59c0-0.8,0.7-1.5,1.5-1.5l0,0c0.8,0,1.5,0.7,1.5,1.5v11.2
		C126.8,71,126.1,71.7,125.2,71.7z"/>
	<path class="st1" d="M134.4,75.7L134.4,75.7c-0.6-0.6-0.7-1.5-0.1-2.2l7.4-8.4c0.6-0.6,1.5-0.7,2.2-0.1l0,0
		c0.6,0.6,0.7,1.5,0.1,2.2l-7.4,8.4C136,76.2,135,76.3,134.4,75.7z"/>
	<path class="st1" d="M141.2,84.3L141.2,84.3c-0.1-0.8,0.6-1.6,1.4-1.7l11.1-1c0.8-0.1,1.6,0.6,1.7,1.4l0,0c0.1,0.8-0.6,1.6-1.4,1.7
		l-11.1,1C142,85.8,141.3,85.2,141.2,84.3z"/>
</g>
</svg>
